<mxfile host="app.diagrams.net" modified="2021-11-18T19:26:40.674Z" agent="5.0 (Windows NT 10.0; Win64; x64) AppleWebKit/537.36 (KHTML, like Gecko) Chrome/95.0.4638.69 Safari/537.36" etag="kzgOLUqVISOsSqa8_9h4" version="15.8.2" type="github">
  <diagram id="RyE1j-cbQ4ZHE5wGzHm8" name="Q4">
    <mxGraphModel dx="544" dy="866" grid="1" gridSize="10" guides="1" tooltips="1" connect="1" arrows="1" fold="1" page="1" pageScale="1" pageWidth="850" pageHeight="1100" math="0" shadow="0">
      <root>
        <mxCell id="0" />
        <mxCell id="1" parent="0" />
        <mxCell id="82TJ2netmh_AsyFb1BPd-1" value="" style="ellipse;html=1;shape=startState;fillColor=#000000;strokeColor=#ff0000;" vertex="1" parent="1">
          <mxGeometry x="340" y="50" width="30" height="30" as="geometry" />
        </mxCell>
        <mxCell id="82TJ2netmh_AsyFb1BPd-2" value="" style="edgeStyle=orthogonalEdgeStyle;html=1;verticalAlign=bottom;endArrow=open;endSize=8;strokeColor=#ff0000;rounded=0;" edge="1" source="82TJ2netmh_AsyFb1BPd-1" parent="1">
          <mxGeometry relative="1" as="geometry">
            <mxPoint x="355" y="140" as="targetPoint" />
          </mxGeometry>
        </mxCell>
        <mxCell id="82TJ2netmh_AsyFb1BPd-6" style="edgeStyle=orthogonalEdgeStyle;rounded=0;orthogonalLoop=1;jettySize=auto;html=1;exitX=1;exitY=0.25;exitDx=0;exitDy=0;entryX=0;entryY=0.25;entryDx=0;entryDy=0;" edge="1" parent="1" source="82TJ2netmh_AsyFb1BPd-4" target="82TJ2netmh_AsyFb1BPd-5">
          <mxGeometry relative="1" as="geometry" />
        </mxCell>
        <mxCell id="82TJ2netmh_AsyFb1BPd-10" style="edgeStyle=orthogonalEdgeStyle;rounded=0;orthogonalLoop=1;jettySize=auto;html=1;exitX=0.5;exitY=1;exitDx=0;exitDy=0;entryX=0.5;entryY=0;entryDx=0;entryDy=0;" edge="1" parent="1" source="82TJ2netmh_AsyFb1BPd-4" target="82TJ2netmh_AsyFb1BPd-9">
          <mxGeometry relative="1" as="geometry">
            <Array as="points">
              <mxPoint x="355" y="240" />
              <mxPoint x="355" y="240" />
            </Array>
          </mxGeometry>
        </mxCell>
        <mxCell id="82TJ2netmh_AsyFb1BPd-11" value="signal the end of the sale" style="edgeLabel;html=1;align=center;verticalAlign=middle;resizable=0;points=[];" vertex="1" connectable="0" parent="82TJ2netmh_AsyFb1BPd-10">
          <mxGeometry x="0.3619" relative="1" as="geometry">
            <mxPoint y="-18" as="offset" />
          </mxGeometry>
        </mxCell>
        <mxCell id="82TJ2netmh_AsyFb1BPd-4" value="Display price and description" style="rounded=1;whiteSpace=wrap;html=1;" vertex="1" parent="1">
          <mxGeometry x="295" y="140" width="120" height="60" as="geometry" />
        </mxCell>
        <mxCell id="82TJ2netmh_AsyFb1BPd-7" style="edgeStyle=orthogonalEdgeStyle;rounded=0;orthogonalLoop=1;jettySize=auto;html=1;exitX=0;exitY=0.75;exitDx=0;exitDy=0;entryX=1;entryY=0.75;entryDx=0;entryDy=0;" edge="1" parent="1" source="82TJ2netmh_AsyFb1BPd-5" target="82TJ2netmh_AsyFb1BPd-4">
          <mxGeometry relative="1" as="geometry" />
        </mxCell>
        <mxCell id="82TJ2netmh_AsyFb1BPd-5" value="&lt;span style=&quot;font-size: 11px ; background-color: rgb(255 , 255 , 255)&quot;&gt;record the identification number and quantity&lt;/span&gt;" style="rounded=1;whiteSpace=wrap;html=1;" vertex="1" parent="1">
          <mxGeometry x="500" y="140" width="120" height="60" as="geometry" />
        </mxCell>
        <mxCell id="82TJ2netmh_AsyFb1BPd-13" value="collect the money recieved" style="edgeStyle=orthogonalEdgeStyle;rounded=0;orthogonalLoop=1;jettySize=auto;html=1;exitX=0.5;exitY=1;exitDx=0;exitDy=0;entryX=0.5;entryY=0;entryDx=0;entryDy=0;" edge="1" parent="1" source="82TJ2netmh_AsyFb1BPd-9" target="82TJ2netmh_AsyFb1BPd-12">
          <mxGeometry relative="1" as="geometry" />
        </mxCell>
        <mxCell id="82TJ2netmh_AsyFb1BPd-9" value="Display the total purchases" style="rounded=1;whiteSpace=wrap;html=1;" vertex="1" parent="1">
          <mxGeometry x="295" y="270" width="120" height="60" as="geometry" />
        </mxCell>
        <mxCell id="82TJ2netmh_AsyFb1BPd-15" style="edgeStyle=orthogonalEdgeStyle;rounded=0;orthogonalLoop=1;jettySize=auto;html=1;exitX=0.5;exitY=1;exitDx=0;exitDy=0;entryX=0.5;entryY=0;entryDx=0;entryDy=0;" edge="1" parent="1" source="82TJ2netmh_AsyFb1BPd-12" target="82TJ2netmh_AsyFb1BPd-14">
          <mxGeometry relative="1" as="geometry" />
        </mxCell>
        <mxCell id="82TJ2netmh_AsyFb1BPd-17" value="register registers" style="edgeLabel;html=1;align=center;verticalAlign=middle;resizable=0;points=[];" vertex="1" connectable="0" parent="82TJ2netmh_AsyFb1BPd-15">
          <mxGeometry x="0.375" relative="1" as="geometry">
            <mxPoint y="-15" as="offset" />
          </mxGeometry>
        </mxCell>
        <mxCell id="82TJ2netmh_AsyFb1BPd-12" value="Indicate the currency to be returned" style="rounded=1;whiteSpace=wrap;html=1;" vertex="1" parent="1">
          <mxGeometry x="295" y="390" width="120" height="60" as="geometry" />
        </mxCell>
        <mxCell id="82TJ2netmh_AsyFb1BPd-18" style="edgeStyle=orthogonalEdgeStyle;rounded=0;orthogonalLoop=1;jettySize=auto;html=1;exitX=0.5;exitY=1;exitDx=0;exitDy=0;entryX=0.489;entryY=0.1;entryDx=0;entryDy=0;entryPerimeter=0;" edge="1" parent="1" source="82TJ2netmh_AsyFb1BPd-14" target="82TJ2netmh_AsyFb1BPd-16">
          <mxGeometry relative="1" as="geometry">
            <Array as="points">
              <mxPoint x="355" y="590" />
            </Array>
          </mxGeometry>
        </mxCell>
        <mxCell id="82TJ2netmh_AsyFb1BPd-19" value="give the customer the receipt" style="edgeLabel;html=1;align=center;verticalAlign=middle;resizable=0;points=[];" vertex="1" connectable="0" parent="82TJ2netmh_AsyFb1BPd-18">
          <mxGeometry x="0.2522" relative="1" as="geometry">
            <mxPoint y="-13" as="offset" />
          </mxGeometry>
        </mxCell>
        <mxCell id="82TJ2netmh_AsyFb1BPd-14" value="receipt printed" style="rounded=1;whiteSpace=wrap;html=1;" vertex="1" parent="1">
          <mxGeometry x="295" y="500" width="120" height="60" as="geometry" />
        </mxCell>
        <mxCell id="82TJ2netmh_AsyFb1BPd-16" value="" style="ellipse;html=1;shape=endState;fillColor=#000000;strokeColor=#ff0000;" vertex="1" parent="1">
          <mxGeometry x="340" y="610" width="30" height="30" as="geometry" />
        </mxCell>
      </root>
    </mxGraphModel>
  </diagram>
</mxfile>
